<svg xmlns="http://www.w3.org/2000/svg" width="120" height="120" viewBox="0 0 120 120" fill="none">
  <!-- Background circle -->
  <circle cx="60" cy="60" r="58" fill="#53C7DB"/>

  <!-- Antenna bulb -->
  <circle cx="60" cy="16" r="7" fill="#2D3436"/>
  <!-- Antenna stem -->
  <rect x="57.5" y="16" width="5" height="14" rx="2.5" fill="#2D3436"/>

  <!-- Single unified head+body shape with big ears -->
  <path d="
    M 26,46
    Q 26,34  38,34
    L 82,34
    Q 94,34  94,46
    L 94,51
    Q 108,51  108,62
    Q 108,73  94,73
    L 94,94
    Q 94,106  82,106
    L 38,106
    Q 26,106  26,94
    L 26,73
    Q 12,73  12,62
    Q 12,51  26,51
    Z
  " fill="#2D3436"/>

  <!-- Left eye -->
  <ellipse cx="47" cy="58" rx="9" ry="9" fill="#53C7DB"/>
  <!-- Right eye -->
  <ellipse cx="73" cy="58" rx="9" ry="9" fill="#53C7DB"/>

  <!-- Mouth -->
  <rect x="40" y="82" width="40" height="9" rx="4.5" fill="#53C7DB"/>
</svg>